<svg id="Layer_1" data-name="Layer 1" xmlns="http://www.w3.org/2000/svg" viewBox="0 0 603.5 148.33"><title>Artboard 1</title><path d="M103,130.28c-9.83,9.07-23.62,14.36-38.36,14.36a59.77,59.77,0,0,1-39.5-14.74C9.67,116.29,1.36,96.83,1.36,73.4c0-21.17,6.24-38.93,18.33-52.73C31.22,7.44,46.53.83,64.86.83,79,.83,93.2,6.31,101.71,14.06c17.58,15.87,26.65,35.53,26.65,57.83C128.35,94.94,119.66,115,103,130.28Zm-37.8,5.67c20.6,0,28.16-20,28.16-62.18C93.39,30.69,83.75,9.52,63,9.52c-20.6,0-26.65,18.9-26.65,58C36.32,113.65,44.26,135.95,65.23,135.95ZM140.45,138c6.24-.95,6.24-6,6.24-16.82V80.58c0-10.39-.57-15.87-7.94-18v-4c11.91-3,20.79-8.5,26.08-16.25h4.54V62.06c16.82-12.66,28.91-19.65,37.8-19.65,9.45,0,14.36,5.1,14.36,15.69v4C238,49.58,249.3,42.4,258.56,42.4c9.64,0,14.93,6.24,14.93,18.33v60.47c0,10.77,0,15.87,6.24,16.82v3.59H244.57V138c6.24-.95,6.24-6,6.24-16.82V72.26c0-7.37-3-11.53-7.94-11.53-5.48,0-12.09,3-21.35,7.75v54.43c0,9.64.19,14.17,6,15.12v3.59h-35V138c5.86-.95,6-5.48,6-15.12V75.85c0-9.64-.76-14.17-9.07-14.17-4.72,0-11.53,2.46-20.22,7v52.54c0,10.77,0,15.87,6.24,16.82v3.59H140.45ZM333.87,42.21c24.19,0,42.71,20.79,42.71,51a55,55,0,0,1-16.06,39.12c-7.94,7.75-17.38,11.91-28,11.91s-19.84-4-27.78-11.91a54.94,54.94,0,0,1-16.06-39.5C288.7,64.32,308.92,42.21,333.87,42.21Zm-17.58,51c0,30.24,2.83,44,16.25,44,13.8,0,16.44-13.8,16.44-44,0-30.43-2.64-43.84-16.44-43.84C319.12,49.4,316.29,63.38,316.29,93.24ZM383,59.6V53c12.47-7.37,22.49-22.3,31-44.41h7V50h20.6V59.6H421v58.58c0,7.75,1.7,11.53,7,11.53,3,0,5.67-1.89,8.88-5.29l4,3c-6.43,11.15-15.12,16.82-24.57,16.82-14,0-20.6-7.37-20.6-22.49V59.6Zm149.08,57.83c-10.58,17.76-24.19,26.84-40.06,26.84-26.08,0-44.22-20.22-44.22-50.84,0-29.86,19.09-51,42.71-51,22.87,0,39.12,18,39.69,47.62H474.06c.57,24,11,36.85,28.91,36.85,9.83,0,18-4,25.51-12.28Zm-41.2-36.09c12.66,0,15.69-.57,15.69-10,0-14-6.43-22.11-16.44-22.11-11,0-16.25,10.77-16.25,32.13Z"/><path d="M555.07,101.66h20.67L566,148.33h2.62L602,87.44h0a2.67,2.67,0,0,0,.3-1.23,2.22,2.22,0,0,0-2-2.38H579.61L589,39.09H585.7L553.21,98.36a2.66,2.66,0,0,0-.17.92A2.22,2.22,0,0,0,555.07,101.66Z"/></svg>